<?xml version="1.0" encoding="UTF-8" standalone="no"?>
<!DOCTYPE svg PUBLIC "-//W3C//DTD SVG 1.1//EN"
 "http://www.w3.org/Graphics/SVG/1.1/DTD/svg11.dtd">
<!-- Generated by graphviz version 2.38.0 (20140413.2041)
 -->
<!-- Title: G Pages: 1 -->
<svg width="462pt" height="257pt"
 viewBox="0.00 0.00 461.50 257.00" xmlns="http://www.w3.org/2000/svg" xmlns:xlink="http://www.w3.org/1999/xlink">
<g id="graph0" class="graph" transform="scale(1 1) rotate(0) translate(4 253)">
<title>G</title>
<polygon fill="none" stroke="none" points="-4,4 -4,-253 457.5,-253 457.5,4 -4,4"/>
<!-- etw_01 -->
<g id="node1" class="node"><title>etw_01</title>
<g id="a_node1"><a xlink:href="/tasks/etw/01.html" xlink:title="&lt;TABLE&gt;">
<polygon fill="none" stroke="none" points="309,-204 309,-240 396,-240 396,-204 309,-204"/>
<text text-anchor="start" x="317.5" y="-218.3" font-family="Helvetica,sans-Serif" font-size="14.00" fill="#eeeeee">Structure</text>
<polygon fill="none" stroke="#eeeeee" points="383.5,-227 383.5,-233 389.5,-233 389.5,-227 383.5,-227"/>
<polygon fill="none" stroke="#eeeeee" points="383.5,-219 383.5,-225 389.5,-225 389.5,-219 383.5,-219"/>
<polygon fill="none" stroke="#eeeeee" points="383.5,-211 383.5,-217 389.5,-217 389.5,-211 383.5,-211"/>
<polygon fill="none" stroke="#eeeeee" points="309,-204 309,-240 396,-240 396,-204 309,-204"/>
</a>
</g>
</g>
<!-- etw_03 -->
<g id="node3" class="node"><title>etw_03</title>
<g id="a_node3"><a xlink:href="/tasks/etw/03.html" xlink:title="&lt;TABLE&gt;">
<polygon fill="none" stroke="none" points="191,-109 191,-155 278,-155 278,-109 191,-109"/>
<text text-anchor="start" x="200" y="-135.8" font-family="Helvetica,sans-Serif" font-size="14.00" fill="#eeeeee">Powered</text>
<text text-anchor="start" x="199.5" y="-120.8" font-family="Helvetica,sans-Serif" font-size="14.00" fill="#eeeeee">Structure</text>
<polygon fill="none" stroke="#eeeeee" points="265.5,-138 265.5,-148 271.5,-148 271.5,-138 265.5,-138"/>
<polygon fill="none" stroke="#eeeeee" points="265.5,-127 265.5,-136 271.5,-136 271.5,-127 265.5,-127"/>
<polygon fill="none" stroke="#eeeeee" points="265.5,-116 265.5,-125 271.5,-125 271.5,-116 265.5,-116"/>
<polygon fill="none" stroke="#eeeeee" points="191,-109 191,-155 278,-155 278,-109 191,-109"/>
</a>
</g>
</g>
<!-- etw_01&#45;&gt;etw_03 -->
<g id="edge1" class="edge"><title>etw_01&#45;&gt;etw_03</title>
<path fill="none" stroke="#eeeeee" d="M324.236,-199.922C310.429,-189.625 293.507,-177.005 278.093,-165.51"/>
<polygon fill="#eeeeee" stroke="#eeeeee" points="279.823,-162.434 269.714,-159.261 275.638,-168.045 279.823,-162.434"/>
</g>
<!-- etw_04 -->
<g id="node4" class="node"><title>etw_04</title>
<g id="a_node4"><a xlink:href="/tasks/etw/04.html" xlink:title="&lt;TABLE&gt;">
<polygon fill="none" stroke="none" points="314,-109 314,-155 391,-155 391,-109 314,-109"/>
<text text-anchor="start" x="328" y="-135.8" font-family="Helvetica,sans-Serif" font-size="14.00" fill="#eeeeee">Tools</text>
<text text-anchor="start" x="322.5" y="-120.8" font-family="Helvetica,sans-Serif" font-size="14.00" fill="#eeeeee">holders</text>
<polygon fill="none" stroke="#eeeeee" points="378.5,-138 378.5,-148 384.5,-148 384.5,-138 378.5,-138"/>
<polygon fill="none" stroke="#eeeeee" points="378.5,-127 378.5,-136 384.5,-136 384.5,-127 378.5,-127"/>
<polygon fill="none" stroke="#eeeeee" points="378.5,-116 378.5,-125 384.5,-125 384.5,-116 378.5,-116"/>
<polygon fill="none" stroke="#eeeeee" points="314,-109 314,-155 391,-155 391,-109 314,-109"/>
</a>
</g>
</g>
<!-- etw_01&#45;&gt;etw_04 -->
<g id="edge3" class="edge"><title>etw_01&#45;&gt;etw_04</title>
<path fill="none" stroke="#eeeeee" d="M352.5,-199.698C352.5,-190.542 352.5,-179.58 352.5,-169.214"/>
<polygon fill="#eeeeee" stroke="#eeeeee" points="356,-169.135 352.5,-159.135 349,-169.135 356,-169.135"/>
</g>
<!-- etw_02 -->
<g id="node2" class="node"><title>etw_02</title>
<g id="a_node2"><a xlink:href="/tasks/etw/02.html" xlink:title="&lt;TABLE&gt;">
<polygon fill="none" stroke="none" points="188,-199 188,-245 275,-245 275,-199 188,-199"/>
<text text-anchor="start" x="196.5" y="-225.8" font-family="Helvetica,sans-Serif" font-size="14.00" fill="#eeeeee">Structure</text>
<text text-anchor="start" x="210" y="-210.8" font-family="Helvetica,sans-Serif" font-size="14.00" fill="#eeeeee">PSU</text>
<polygon fill="none" stroke="#eeeeee" points="262.5,-228 262.5,-238 268.5,-238 268.5,-228 262.5,-228"/>
<polygon fill="none" stroke="#eeeeee" points="262.5,-217 262.5,-226 268.5,-226 268.5,-217 262.5,-217"/>
<polygon fill="none" stroke="#eeeeee" points="262.5,-206 262.5,-215 268.5,-215 268.5,-206 262.5,-206"/>
<polygon fill="none" stroke="#eeeeee" points="188,-199 188,-245 275,-245 275,-199 188,-199"/>
</a>
</g>
</g>
<!-- etw_02&#45;&gt;etw_03 -->
<g id="edge2" class="edge"><title>etw_02&#45;&gt;etw_03</title>
<path fill="none" stroke="#eeeeee" d="M232.4,-194.597C232.672,-186.607 232.976,-177.689 233.267,-169.176"/>
<polygon fill="#eeeeee" stroke="#eeeeee" points="236.768,-169.194 233.611,-159.081 229.772,-168.956 236.768,-169.194"/>
</g>
<!-- etw_05 -->
<g id="node5" class="node"><title>etw_05</title>
<g id="a_node5"><a xlink:href="/tasks/etw/05.html" xlink:title="&lt;TABLE&gt;">
<polygon fill="none" stroke="none" points="8,-4 8,-65 79,-65 79,-4 8,-4"/>
<text text-anchor="start" x="24.5" y="-45.3" font-family="Helvetica,sans-Serif" font-size="14.00" fill="#eeeeee">Lab</text>
<text text-anchor="start" x="16.5" y="-30.3" font-family="Helvetica,sans-Serif" font-size="14.00" fill="#eeeeee">Bench</text>
<text text-anchor="start" x="22" y="-15.3" font-family="Helvetica,sans-Serif" font-size="14.00" fill="#eeeeee">PSU</text>
<polygon fill="none" stroke="#eeeeee" points="66.5,-42.5 66.5,-57.5 72.5,-57.5 72.5,-42.5 66.5,-42.5"/>
<polygon fill="none" stroke="#eeeeee" points="66.5,-26.5 66.5,-40.5 72.5,-40.5 72.5,-26.5 66.5,-26.5"/>
<polygon fill="none" stroke="#eeeeee" points="66.5,-10.5 66.5,-24.5 72.5,-24.5 72.5,-10.5 66.5,-10.5"/>
<polygon fill="none" stroke="#eeeeee" points="8,-4 8,-65 79,-65 79,-4 8,-4"/>
</a>
</g>
</g>
<!-- etw_03&#45;&gt;etw_05 -->
<g id="edge4" class="edge"><title>etw_03&#45;&gt;etw_05</title>
<path fill="none" stroke="#eeeeee" d="M182.876,-109.867C156.59,-98.5922 124.381,-83.9778 96.5,-69 96.3082,-68.897 96.1162,-68.7935 95.9239,-68.6896"/>
<polygon fill="#eeeeee" stroke="#eeeeee" points="97.6072,-65.6208 87.1745,-63.7743 94.1787,-71.7237 97.6072,-65.6208"/>
</g>
<!-- etw_06 -->
<g id="node6" class="node"><title>etw_06</title>
<g id="a_node6"><a xlink:href="/tasks/etw/06.html" xlink:title="&lt;TABLE&gt;">
<polygon fill="none" stroke="none" points="113.5,-16.5 113.5,-52.5 223.5,-52.5 223.5,-16.5 113.5,-16.5"/>
<text text-anchor="start" x="121.5" y="-30.8" font-family="Helvetica,sans-Serif" font-size="14.00" fill="#eeeeee">Oscilloscope</text>
<polygon fill="none" stroke="#eeeeee" points="210.5,-39.5 210.5,-45.5 216.5,-45.5 216.5,-39.5 210.5,-39.5"/>
<polygon fill="none" stroke="#eeeeee" points="210.5,-31.5 210.5,-37.5 216.5,-37.5 216.5,-31.5 210.5,-31.5"/>
<polygon fill="none" stroke="#eeeeee" points="210.5,-23.5 210.5,-29.5 216.5,-29.5 216.5,-23.5 210.5,-23.5"/>
<polygon fill="none" stroke="#eeeeee" points="113.5,-16.5 113.5,-52.5 223.5,-52.5 223.5,-16.5 113.5,-16.5"/>
</a>
</g>
</g>
<!-- etw_03&#45;&gt;etw_06 -->
<g id="edge5" class="edge"><title>etw_03&#45;&gt;etw_06</title>
<path fill="none" stroke="#eeeeee" d="M216.465,-104.904C207.968,-92.6095 197.792,-77.8848 189.003,-65.1678"/>
<polygon fill="#eeeeee" stroke="#eeeeee" points="191.743,-62.9757 183.178,-56.739 185.984,-66.9555 191.743,-62.9757"/>
</g>
<!-- etw_07 -->
<g id="node7" class="node"><title>etw_07</title>
<g id="a_node7"><a xlink:href="/tasks/etw/07.html" xlink:title="&lt;TABLE&gt;">
<polygon fill="none" stroke="none" points="258,-16.5 258,-52.5 345,-52.5 345,-16.5 258,-16.5"/>
<text text-anchor="start" x="266.5" y="-30.8" font-family="Helvetica,sans-Serif" font-size="14.00" fill="#eeeeee">Lightning</text>
<polygon fill="none" stroke="#eeeeee" points="332.5,-39.5 332.5,-45.5 338.5,-45.5 338.5,-39.5 332.5,-39.5"/>
<polygon fill="none" stroke="#eeeeee" points="332.5,-31.5 332.5,-37.5 338.5,-37.5 338.5,-31.5 332.5,-31.5"/>
<polygon fill="none" stroke="#eeeeee" points="332.5,-23.5 332.5,-29.5 338.5,-29.5 338.5,-23.5 332.5,-23.5"/>
<polygon fill="none" stroke="#eeeeee" points="258,-16.5 258,-52.5 345,-52.5 345,-16.5 258,-16.5"/>
</a>
</g>
</g>
<!-- etw_03&#45;&gt;etw_07 -->
<g id="edge6" class="edge"><title>etw_03&#45;&gt;etw_07</title>
<path fill="none" stroke="#eeeeee" d="M252.808,-104.904C261.434,-92.6095 271.764,-77.8848 280.686,-65.1678"/>
<polygon fill="#eeeeee" stroke="#eeeeee" points="283.721,-66.9355 286.599,-56.739 277.991,-62.9152 283.721,-66.9355"/>
</g>
<!-- etw_08 -->
<g id="node8" class="node"><title>etw_08</title>
<g id="a_node8"><a xlink:href="/tasks/etw/08.html" xlink:title="&lt;TABLE&gt;">
<polygon fill="none" stroke="none" points="379.5,-11.5 379.5,-57.5 445.5,-57.5 445.5,-11.5 379.5,-11.5"/>
<text text-anchor="start" x="390.5" y="-38.3" font-family="Helvetica,sans-Serif" font-size="14.00" fill="#eeeeee">USB</text>
<text text-anchor="start" x="387.5" y="-23.3" font-family="Helvetica,sans-Serif" font-size="14.00" fill="#eeeeee">Plugs</text>
<polygon fill="none" stroke="#eeeeee" points="432.5,-40.5 432.5,-50.5 438.5,-50.5 438.5,-40.5 432.5,-40.5"/>
<polygon fill="none" stroke="#eeeeee" points="432.5,-29.5 432.5,-38.5 438.5,-38.5 438.5,-29.5 432.5,-29.5"/>
<polygon fill="none" stroke="#eeeeee" points="432.5,-18.5 432.5,-27.5 438.5,-27.5 438.5,-18.5 432.5,-18.5"/>
<polygon fill="none" stroke="#eeeeee" points="379.5,-11.5 379.5,-57.5 445.5,-57.5 445.5,-11.5 379.5,-11.5"/>
</a>
</g>
</g>
<!-- etw_03&#45;&gt;etw_08 -->
<g id="edge7" class="edge"><title>etw_03&#45;&gt;etw_08</title>
<path fill="none" stroke="#eeeeee" d="M286.109,-108.005C309.782,-96.9511 337.975,-83.0648 362.5,-69 363.622,-68.3567 364.752,-67.6974 365.887,-67.025"/>
<polygon fill="#eeeeee" stroke="#eeeeee" points="367.932,-69.8763 374.629,-61.6658 364.274,-63.9085 367.932,-69.8763"/>
</g>
</g>
</svg>
