<?xml version="1.0" encoding="UTF-8" standalone="no"?>
<!DOCTYPE svg PUBLIC "-//W3C//DTD SVG 1.1//EN"
 "http://www.w3.org/Graphics/SVG/1.1/DTD/svg11.dtd">
<!-- Generated by graphviz version 2.38.0 (20140413.2041)
 -->
<!-- Title: G Pages: 1 -->
<svg width="84pt" height="62pt"
 viewBox="0.00 0.00 84.00 62.00" xmlns="http://www.w3.org/2000/svg" xmlns:xlink="http://www.w3.org/1999/xlink">
<g id="graph0" class="graph" transform="scale(1 1) rotate(0) translate(4 58)">
<title>G</title>
<polygon fill="none" stroke="none" points="-4,4 -4,-58 80,-58 80,4 -4,4"/>
<!-- other_01 -->
<g id="node1" class="node"><title>other_01</title>
<g id="a_node1"><a xlink:href="/tasks/other/01.html" xlink:title="&lt;TABLE&gt;">
<polygon fill="none" stroke="none" points="8,-4 8,-50 68,-50 68,-4 8,-4"/>
<text text-anchor="start" x="18.5" y="-30.8" font-family="Helvetica,sans-Serif" font-size="14.00" fill="#eeeeee">DIY</text>
<text text-anchor="start" x="16" y="-15.8" font-family="Helvetica,sans-Serif" font-size="14.00" fill="#eeeeee">PCB</text>
<polygon fill="none" stroke="#eeeeee" points="55,-33 55,-43 61,-43 61,-33 55,-33"/>
<polygon fill="none" stroke="#eeeeee" points="55,-22 55,-31 61,-31 61,-22 55,-22"/>
<polygon fill="none" stroke="#eeeeee" points="55,-11 55,-20 61,-20 61,-11 55,-11"/>
<polygon fill="none" stroke="#eeeeee" points="8,-4 8,-50 68,-50 68,-4 8,-4"/>
</a>
</g>
</g>
</g>
</svg>
